<?xml version="1.0" encoding="UTF-8" standalone="no" ?>
<!DOCTYPE svg PUBLIC "-//W3C//DTD SVG 1.1//EN" "http://www.w3.org/Graphics/SVG/1.1/DTD/svg11.dtd">
<svg xmlns="http://www.w3.org/2000/svg" xmlns:xlink="http://www.w3.org/1999/xlink" version="1.1" width="100" height="25" viewBox="0 0 1080 1080" xml:space="preserve">
<desc>Created with Fabric.js 5.2.4</desc>
<defs>
</defs>
<rect x="0" y="0" width="100%" height="100%" fill="transparent"></rect>
<g transform="matrix(1 0 0 1 540 540)" id="3fddf3fc-c4e6-40eb-a47f-464bb79c4e8d"  >
</g>
<g transform="matrix(1 0 0 1 540 540)" id="81a2800b-2904-4c00-b668-70e71a04549e"  >
<rect style="stroke: none; stroke-width: 1; stroke-dasharray: none; stroke-linecap: butt; stroke-dashoffset: 0; stroke-linejoin: miter; stroke-miterlimit: 4; fill: rgb(255,255,255); fill-rule: nonzero; opacity: 1; visibility: hidden;" vector-effect="non-scaling-stroke"  x="-540" y="-540" rx="0" ry="0" width="1080" height="1080" />
</g>
<g transform="matrix(6.75 0 0 6.75 540 540)"  >
<g style=""   >
		<g transform="matrix(37.74 0 0 37.74 -147.88 59.07)" id="SvgjsG1649"  >
<circle style="stroke: none; stroke-width: 1; stroke-dasharray: none; stroke-linecap: butt; stroke-dashoffset: 0; stroke-linejoin: miter; stroke-miterlimit: 4; fill: rgb(255,255,255); fill-rule: nonzero; opacity: 1;" vector-effect="non-scaling-stroke"  cx="0" cy="0" r="0.171" />
</g>
		<g transform="matrix(37.74 0 0 37.74 -130.41 47.94)" id="SvgjsG1649"  >
<circle style="stroke: none; stroke-width: 1; stroke-dasharray: none; stroke-linecap: butt; stroke-dashoffset: 0; stroke-linejoin: miter; stroke-miterlimit: 4; fill: rgb(255,255,255); fill-rule: nonzero; opacity: 1;" vector-effect="non-scaling-stroke"  cx="0" cy="0" r="0.171" />
</g>
		<g transform="matrix(37.74 0 0 37.74 -105.41 -1.01)" id="SvgjsG1649"  >
<circle style="stroke: none; stroke-width: 1; stroke-dasharray: none; stroke-linecap: butt; stroke-dashoffset: 0; stroke-linejoin: miter; stroke-miterlimit: 4; fill: rgb(255,255,255); fill-rule: nonzero; opacity: 1;" vector-effect="non-scaling-stroke"  cx="0" cy="0" r="0.17" />
</g>
		<g transform="matrix(37.74 0 0 37.74 -116.29 -16.98)" id="SvgjsG1649"  >
<circle style="stroke: none; stroke-width: 1; stroke-dasharray: none; stroke-linecap: butt; stroke-dashoffset: 0; stroke-linejoin: miter; stroke-miterlimit: 4; fill: rgb(255,255,255); fill-rule: nonzero; opacity: 1;" vector-effect="non-scaling-stroke"  cx="0" cy="0" r="0.171" />
</g>
		<g transform="matrix(37.74 0 0 37.74 -130.41 -49.89)" id="SvgjsG1649"  >
<circle style="stroke: none; stroke-width: 1; stroke-dasharray: none; stroke-linecap: butt; stroke-dashoffset: 0; stroke-linejoin: miter; stroke-miterlimit: 4; fill: rgb(255,255,255); fill-rule: nonzero; opacity: 1;" vector-effect="non-scaling-stroke"  cx="0" cy="0" r="0.171" />
</g>
		<g transform="matrix(37.74 0 0 37.74 -147.88 -60.61)" id="SvgjsG1649"  >
<circle style="stroke: none; stroke-width: 1; stroke-dasharray: none; stroke-linecap: butt; stroke-dashoffset: 0; stroke-linejoin: miter; stroke-miterlimit: 4; fill: rgb(255,255,255); fill-rule: nonzero; opacity: 1;" vector-effect="non-scaling-stroke"  cx="0" cy="0" r="0.171" />
</g>
		<g transform="matrix(37.74 0 0 37.74 -191.55 -46.68)" id="SvgjsG1649"  >
<circle style="stroke: none; stroke-width: 1; stroke-dasharray: none; stroke-linecap: butt; stroke-dashoffset: 0; stroke-linejoin: miter; stroke-miterlimit: 4; fill: rgb(255,255,255); fill-rule: nonzero; opacity: 1;" vector-effect="non-scaling-stroke"  cx="0" cy="0" r="0.171" />
</g>
		<g transform="matrix(37.74 0 0 37.74 -188.08 0.46)" id="SvgjsG1649"  >
<circle style="stroke: none; stroke-width: 1; stroke-dasharray: none; stroke-linecap: butt; stroke-dashoffset: 0; stroke-linejoin: miter; stroke-miterlimit: 4; fill: rgb(255,255,255); fill-rule: nonzero; opacity: 1;" vector-effect="non-scaling-stroke"  cx="0" cy="0" r="0.171" />
</g>
		<g transform="matrix(37.74 0 0 37.74 -188.07 26.77)" id="SvgjsG1649"  >
<circle style="stroke: none; stroke-width: 1; stroke-dasharray: none; stroke-linecap: butt; stroke-dashoffset: 0; stroke-linejoin: miter; stroke-miterlimit: 4; fill: rgb(255,255,255); fill-rule: nonzero; opacity: 1;" vector-effect="non-scaling-stroke"  cx="0" cy="0" r="0.17" />
</g>
		<g transform="matrix(37.74 0 0 37.74 -169.24 46.13)" id="SvgjsG1649"  >
<circle style="stroke: none; stroke-width: 1; stroke-dasharray: none; stroke-linecap: butt; stroke-dashoffset: 0; stroke-linejoin: miter; stroke-miterlimit: 4; fill: rgb(255,255,255); fill-rule: nonzero; opacity: 1;" vector-effect="non-scaling-stroke"  cx="0" cy="0" r="0.171" />
</g>
		<g transform="matrix(37.74 0 0 37.74 -154.32 5.97)"  >
<path style="stroke: none; stroke-width: 1; stroke-dasharray: none; stroke-linecap: butt; stroke-dashoffset: 0; stroke-linejoin: miter; stroke-miterlimit: 4; fill: rgb(255,255,255); fill-rule: nonzero; opacity: 1;" vector-effect="non-scaling-stroke"  transform=" translate(-2.58, -2.68)" d="M 2.464 2.558 C 2.529 2.4899999999999998 2.639 2.4899999999999998 2.7039999999999997 2.558 C 2.7699999999999996 2.6229999999999998 2.7699999999999996 2.7319999999999998 2.7039999999999997 2.7969999999999997 C 2.639 2.8659999999999997 2.529 2.8659999999999997 2.4639999999999995 2.7969999999999997 C 2.396 2.731 2.396 2.623 2.464 2.558 z" stroke-linecap="round" />
</g>
		<g transform="matrix(37.74 0 0 37.74 -159.82 -0.47)" id="SvgjsG1649"  >
<polygon style="stroke: none; stroke-width: 1; stroke-dasharray: none; stroke-linecap: butt; stroke-dashoffset: 0; stroke-linejoin: miter; stroke-miterlimit: 4; fill: rgb(255,255,255); fill-rule: nonzero; opacity: 1;" vector-effect="non-scaling-stroke"  points="0.39,1.61 0.24,1.61 0.24,1.1 -0.39,0.47 -0.39,-0.35 0.24,-0.98 0.24,-1.61 0.39,-1.61 0.39,-0.92 -0.24,-0.28 -0.24,0.41 0.39,1.04 " />
</g>
		<g transform="matrix(37.74 0 0 37.74 -138.73 -4)" id="SvgjsG1649"  >
<polygon style="stroke: none; stroke-width: 1; stroke-dasharray: none; stroke-linecap: butt; stroke-dashoffset: 0; stroke-linejoin: miter; stroke-miterlimit: 4; fill: rgb(255,255,255); fill-rule: nonzero; opacity: 1;" vector-effect="non-scaling-stroke"  points="-0.19,1.22 -0.29,1.11 0.11,0.71 0.11,0.1 -0.27,-0.28 0.15,-0.7 0.15,-1.22 0.29,-1.22 0.29,-0.64 -0.06,-0.28 0.26,0.04 0.26,0.77 " />
</g>
		<g transform="matrix(26.69 26.69 -26.69 26.69 -144.74 17.18)" id="SvgjsG1649"  >
<rect style="stroke: none; stroke-width: 1; stroke-dasharray: none; stroke-linecap: butt; stroke-dashoffset: 0; stroke-linejoin: miter; stroke-miterlimit: 4; fill: rgb(255,255,255); fill-rule: nonzero; opacity: 1;" vector-effect="non-scaling-stroke"  x="-0.37" y="-0.075" rx="0" ry="0" width="0.74" height="0.15" />
</g>
		<g transform="matrix(37.74 0 0 37.74 -182.07 -29.17)" id="SvgjsG1649"  >
<polygon style="stroke: none; stroke-width: 1; stroke-dasharray: none; stroke-linecap: butt; stroke-dashoffset: 0; stroke-linejoin: miter; stroke-miterlimit: 4; fill: rgb(255,255,255); fill-rule: nonzero; opacity: 1;" vector-effect="non-scaling-stroke"  points="0.22,0.46 -0.32,-0.08 -0.32,-0.46 -0.18,-0.46 -0.18,-0.14 0.33,0.36 " />
</g>
		<g transform="matrix(26.44 26.93 -26.93 26.44 -123.99 -9.19)" id="SvgjsG1649"  >
<rect style="stroke: none; stroke-width: 1; stroke-dasharray: none; stroke-linecap: butt; stroke-dashoffset: 0; stroke-linejoin: miter; stroke-miterlimit: 4; fill: rgb(255,255,255); fill-rule: nonzero; opacity: 1;" vector-effect="non-scaling-stroke"  x="-0.075" y="-0.29" rx="0" ry="0" width="0.15" height="0.58" />
</g>
		<g transform="matrix(26.75 26.63 -26.63 26.75 -179.93 7.9)" id="SvgjsG1649"  >
<rect style="stroke: none; stroke-width: 1; stroke-dasharray: none; stroke-linecap: butt; stroke-dashoffset: 0; stroke-linejoin: miter; stroke-miterlimit: 4; fill: rgb(255,255,255); fill-rule: nonzero; opacity: 1;" vector-effect="non-scaling-stroke"  x="-0.305" y="-0.075" rx="0" ry="0" width="0.61" height="0.15" />
</g>
		<g transform="matrix(37.74 0 0 37.74 -188.11 36.85)"  >
<path style="stroke: none; stroke-width: 1; stroke-dasharray: none; stroke-linecap: butt; stroke-dashoffset: 0; stroke-linejoin: miter; stroke-miterlimit: 4; fill: rgb(255,255,255); fill-rule: nonzero; opacity: 1;" vector-effect="non-scaling-stroke"  transform=" translate(-1.69, -3.5)" d="M 1.688 3.496" stroke-linecap="round" />
</g>
		<g transform="matrix(37.74 0 0 37.74 -118.06 23.42)" id="SvgjsG1649"  >
<polygon style="stroke: none; stroke-width: 1; stroke-dasharray: none; stroke-linecap: butt; stroke-dashoffset: 0; stroke-linejoin: miter; stroke-miterlimit: 4; fill: rgb(255,255,255); fill-rule: nonzero; opacity: 1;" vector-effect="non-scaling-stroke"  points="-0.28,0.7 -0.39,0.6 -0.02,0.23 -0.02,-0.39 0.28,-0.7 0.39,-0.6 0.12,-0.33 0.12,0.3 " />
</g>
		<g transform="matrix(26.69 26.69 -26.69 26.69 -178.62 36.77)" id="SvgjsG1649"  >
<rect style="stroke: none; stroke-width: 1; stroke-dasharray: none; stroke-linecap: butt; stroke-dashoffset: 0; stroke-linejoin: miter; stroke-miterlimit: 4; fill: rgb(255,255,255); fill-rule: nonzero; opacity: 1;" vector-effect="non-scaling-stroke"  x="-0.355" y="-0.075" rx="0" ry="0" width="0.71" height="0.15" />
</g>
		<g transform="matrix(9.83 0 0 9.83 74.25 0)"  >
<path style="stroke: none; stroke-width: 1; stroke-dasharray: none; stroke-linecap: butt; stroke-dashoffset: 0; stroke-linejoin: miter; stroke-miterlimit: 4; fill: rgb(255,255,255); fill-rule: nonzero; opacity: 1;" vector-effect="non-scaling-stroke"  transform=" translate(-13.02, -13.26)" d="M 13.458 6.441000000000001 C 13.61054 6.441000000000001 13.77986 6.57659 13.67817 6.796930000000001 L 7.440869999999999 19.86493 C 7.390022999999999 19.98357 7.271209999999999 20.0851 7.135619999999999 20.0851 L 7.000189999999999 20.0851 C 6.864599999999999 20.0851 6.745949999999999 19.98357 6.695109999999999 19.86493 L 0.4578099999999985 6.77993 C 0.3561199999999985 6.5765400000000005 0.5256069999999985 6.44095 0.6781499999999985 6.44095 L 2.3900499999999987 6.44095 C 2.559539999999999 6.44095 2.6273399999999985 6.57654 2.695129999999999 6.74603 L 7.0680299999999985 16.27143 L 11.441129999999998 6.746029999999999 C 11.525875999999998 6.57654 11.576719999999998 6.440949999999999 11.746209999999998 6.440949999999999 L 13.458109999999998 6.440949999999999 z M 25.47459322033898 19.37305 C 25.72900322033898 19.64424 25.592903220338982 20.00051 25.22001322033898 20.00051 L 23.79631322033898 20.00051 C 23.643773220338982 20.00051 23.55902322033898 19.966777999999998 23.44038322033898 19.848129999999998 L 17.10138322033898 13.170129999999997 L 17.10138322033898 19.729429999999997 C 17.10138322033898 19.881809999999998 16.982743220338982 20.000449999999997 16.83019322033898 20.000449999999997 L 15.45729322033898 20.000449999999997 C 15.30475322033898 20.000449999999997 15.18610322033898 19.881809999999998 15.18610322033898 19.729429999999997 L 15.18610322033898 7.695429999999996 C 15.16915422033898 7.3055999999999965 15.13542222033898 7.068309999999997 15.08457322033898 6.780179999999996 C 15.050675220338979 6.593739999999996 15.10152222033898 6.441199999999996 15.271013220338979 6.441199999999996 L 16.440713220338978 6.441199999999996 C 16.84749322033898 6.441199999999996 17.10173322033898 6.678489999999996 17.10173322033898 7.051369999999996 L 17.10173322033898 12.712369999999996 L 22.694933220338978 6.593769999999997 C 22.779679220338977 6.491909999999996 22.88137322033898 6.441059999999997 23.033913220338977 6.441059999999997 L 24.491513220338977 6.441059999999997 C 24.830493220338976 6.441059999999997 24.949143220338975 6.7969899999999965 24.745753220338976 7.017159999999997 L 19.305053220338976 12.949359999999997 z" stroke-linecap="round" />
</g>
</g>
</g>
</svg>